<svg xmlns="http://www.w3.org/2000/svg" xmlns:xlink="http://www.w3.org/1999/xlink" viewBox="0 0 215 360"><defs><style>.cls-1{fill:#fff;}.cls-2{fill:none;}.cls-3{isolation:isolate;}.cls-4{clip-path:url(#clip-path);}.cls-5{mask:url(#mask);}.cls-6{fill:url(#Degradado_sin_nombre_120);}.cls-7{fill:url(#Degradado_sin_nombre_120-2);}.cls-8{fill:url(#Degradado_sin_nombre_120-3);}.cls-9{opacity:0.57;fill:url(#Degradado_sin_nombre_120-4);}.cls-10{fill:url(#Degradado_sin_nombre_120-5);}.cls-11{fill:url(#Degradado_sin_nombre_120-6);}.cls-12{mix-blend-mode:multiply;fill:url(#Nueva_muestra_de_degradado_10);}.cls-13{fill:url(#Degradado_sin_nombre_120-7);}.cls-14,.cls-15,.cls-16{mix-blend-mode:color-dodge;}.cls-14{fill:url(#linear-gradient);}.cls-15{fill:url(#linear-gradient-2);}.cls-16{fill:url(#linear-gradient-3);}.cls-17{fill:#19232d;}</style><clipPath id="clip-path"><rect class="cls-2" x="-1" width="216" height="360"/></clipPath><mask id="mask" x="-45.07" y="2" width="440.91" height="474.59" maskUnits="userSpaceOnUse"><rect class="cls-1" y="2" width="215" height="358"/></mask><linearGradient id="Degradado_sin_nombre_120" x1="-998.92" y1="881.15" x2="-968.8" y2="881.15" gradientTransform="translate(-1174.92 -314.09) rotate(-112.04)" gradientUnits="userSpaceOnUse"><stop offset="0" stop-color="#f6ff00"/><stop offset="0.24" stop-color="#f8e306"/><stop offset="0.74" stop-color="#ff9b14"/><stop offset="0.77" stop-color="#ff9715"/><stop offset="1" stop-color="#ff9515"/></linearGradient><linearGradient id="Degradado_sin_nombre_120-2" x1="-955.01" y1="901.33" x2="-946.49" y2="901.33" xlink:href="#Degradado_sin_nombre_120"/><linearGradient id="Degradado_sin_nombre_120-3" x1="-1296.63" y1="-190.77" x2="-1101.26" y2="-190.77" gradientTransform="translate(-1048.85 751.18) rotate(150.25)" xlink:href="#Degradado_sin_nombre_120"/><linearGradient id="Degradado_sin_nombre_120-4" x1="-314.59" y1="876.49" x2="-147.89" y2="876.49" gradientTransform="translate(296.71 -574.6) rotate(1.73)" xlink:href="#Degradado_sin_nombre_120"/><linearGradient id="Degradado_sin_nombre_120-5" x1="-612.25" y1="64.99" x2="-582.14" y2="64.99" gradientTransform="translate(259.87 779.57) rotate(78.45)" xlink:href="#Degradado_sin_nombre_120"/><linearGradient id="Degradado_sin_nombre_120-6" x1="-636.02" y1="40.77" x2="-619.29" y2="40.77" gradientTransform="translate(259.87 779.57) rotate(78.45)" xlink:href="#Degradado_sin_nombre_120"/><radialGradient id="Nueva_muestra_de_degradado_10" cx="2.76" cy="242.3" r="81.33" gradientTransform="matrix(-1.45, 1.07, -1.27, -1.7, 502.19, 722.56)" gradientUnits="userSpaceOnUse"><stop offset="0" stop-color="#bfb000"/><stop offset="0.07" stop-color="#c9bd2a"/><stop offset="0.16" stop-color="#d6cc5b"/><stop offset="0.26" stop-color="#e1da87"/><stop offset="0.36" stop-color="#eae5ac"/><stop offset="0.47" stop-color="#f2efca"/><stop offset="0.58" stop-color="#f8f6e2"/><stop offset="0.7" stop-color="#fcfbf2"/><stop offset="0.83" stop-color="#fefefc"/><stop offset="1" stop-color="#fff"/></radialGradient><linearGradient id="Degradado_sin_nombre_120-7" x1="-1315.32" y1="-662.5" x2="-1134.65" y2="-662.5" gradientTransform="matrix(-1.55, 0.72, -0.53, -1.15, -2043.36, 393.2)" xlink:href="#Degradado_sin_nombre_120"/><linearGradient id="linear-gradient" x1="791.12" y1="-40.36" x2="872.55" y2="98.34" gradientTransform="translate(-636.14 158.31) rotate(10.07)" gradientUnits="userSpaceOnUse"><stop offset="0"/><stop offset="0.23" stop-color="#050505"/><stop offset="0.48" stop-color="#131313"/><stop offset="0.76" stop-color="#292929"/><stop offset="1" stop-color="#444"/></linearGradient><linearGradient id="linear-gradient-2" x1="805.56" y1="240.93" x2="865.44" y2="342.93" gradientTransform="translate(-782.82 246.76) rotate(-14.77)" xlink:href="#linear-gradient"/><linearGradient id="linear-gradient-3" x1="968.37" y1="184.4" x2="1028.25" y2="286.4" gradientTransform="translate(-782.82 246.76) rotate(-14.77)" xlink:href="#linear-gradient"/></defs><title>background1</title><g class="cls-3"><g id="LAYER"><g class="cls-4"><g class="cls-5"><rect class="cls-1" y="2" width="215" height="358"/><path class="cls-6" d="M5.41,253.17a15.07,15.07,0,1,1,11.35,27.9,15.07,15.07,0,1,1-11.35-27.9Z"/><path class="cls-7" d="M15.76,224.91a4.26,4.26,0,1,1-2.36,5.54A4.28,4.28,0,0,1,15.76,224.91Z"/><path class="cls-8" d="M-15.3,335.16c-1.88-9.41-.16-19,3-28s8.16-17.76,16.25-23c18.63-12,40.4-3,60.41-1.63,11,.75,16-8.74,20.58-17s9-17.07,14.57-25c5.31-7.53,12.77-15.64,22-18.18,9.45-2.61,18.5,3.1,24.62,9.81A86.5,86.5,0,0,1,154,242.77c14.3,28.54,15.92,62.57,5.53,92.71-5.83,16.9-15.68,32.9-29.08,44.89-15.39,13.77-36.15,19.46-56.57,18.11-19.18-1.27-37.53-8.72-53.59-18.95S-11.43,354.47-15.3,335.16Z"/><path class="cls-9" d="M119.3,330.16c-2.83,7.67-8.39,13.9-14.66,19s-13.87,9.3-22.08,9.5c-18.91.47-30.71-15.71-44.64-25.57-7.64-5.4-15.5-.71-22.58,3.27S1.18,344.81-6.39,348.08c-7.23,3.12-16.27,5.71-24.11,3.47-8-2.29-12.06-10.45-13.51-18a73.36,73.36,0,0,1-1.05-11.2c2.37-27.08,16.4-52.53,37.42-69.83,11.79-9.7,26.1-17,41.21-19.75,17.34-3.19,35,1.87,49.21,11.89,13.37,9.42,23.38,23,30.49,37.51S125.13,314.41,119.3,330.16Z"/><path class="cls-10" d="M79.65,222.23A15.06,15.06,0,1,1,91.77,204.4,15.29,15.29,0,0,1,79.65,222.23Z"/><path class="cls-11" d="M95.94,181a8.36,8.36,0,1,1,6.55-9.87A8.4,8.4,0,0,1,95.94,181Z"/><path class="cls-12" d="M72,400.1C14.77,323.62,21.06,222.6,86,174.46s164-25.16,221.2,51.32,50.91,177.51-14.06,225.65S129.17,476.59,72,400.1Z"/><path class="cls-13" d="M89.92,368.31c-.17-13.9,6.34-29.6,20.91-40.65a66.92,66.92,0,0,1,10.74-6.44c3.77-1.88,7.64-3.85,10.59-6.7,6.54-6.32,4.07-13.65,2.19-19.54-9.18-28.83-36.44-52.57-30.9-86.32,2.21-13.43,11.06-28,25.53-37.37,15.18-9.88,32.57-9.77,47.34-6.62,7.73,1.65,15,4,22.36,6.32,8.06,2.55,16.08,5.16,23.83,8.15a155.07,155.07,0,0,1,21.75,10.15,107.25,107.25,0,0,1,17.4,13c4.24,3.74,9.11,7.7,15.89,8.56,8.39,1.06,15.95-3.28,23.59-7.45,3.76-2.05,7.75-4.06,11.94-4.49a18.16,18.16,0,0,1,9.47,1.59c6.35,2.92,9.83,8.19,12.29,13.81,2.7,6.17,4.69,12.66,8.85,18.06a1.57,1.57,0,0,0,.52,1.53,228.21,228.21,0,0,1,32.24,36.93A218,218,0,0,1,389,291.31c3,5.52,6.26,11.2,6.75,17.71.46,6.23-2.68,12.82-10.59,16.52-8.57,4-18.2,3.9-26.57,3.43-18.14-1-35.06-4.88-52.43-7.6A200.25,200.25,0,0,0,280,318.58a44.33,44.33,0,0,0-26.18,7.28c-14,9.19-24.93,22.33-34.52,34.38s-18.46,24.49-29.22,36c-10.43,11.19-23.91,22.74-39.59,28.14-9.4,3.23-17.55,2.52-24.66-1.13a68.29,68.29,0,0,1-18.59-14.38C96.91,397.87,90.11,383.72,89.92,368.31Z"/><path class="cls-14" d="M51.89,279c21.36-25.49,46.41-26,75.62-19.47,25,5.59,51.06,17.65,75.77,12.38s43.38-19.78,68.1-13.83c33.14,8,43.25,37.88,37.06,64-8.59,36.27-42.8,48.83-73.5,40.69-25.4-6.73-51.42-14.92-83.47.19-23.74,11.2-37.54,40.88-67,36.14C51,393.73,12.38,326.11,51.89,279Z"/><path class="cls-15" d="M-.84,319.12C5.49,295.6,22,287.57,43.47,283c18.36-3.94,39.46-3.91,54.27-15s22.76-26.47,41.05-30.09c24.53-4.85,40.52,11.95,44.5,31.26,5.51,26.78-13.37,45.63-36.33,49.63-19,3.31-38.85,5.84-55.5,25.73C79.12,359.23,79.12,383.22,58,389.11,34.09,395.79-12.54,362.62-.84,319.12Z"/><path class="cls-16" d="M142.18,222.95c6.33-23.52,22.85-31.55,44.31-36.15,18.36-3.94,39.46-3.91,54.27-15s22.76-26.47,41.05-30.09c24.53-4.85,40.52,11.95,44.5,31.26,5.51,26.78-13.37,45.63-36.33,49.63-19,3.31-38.85,5.84-55.5,25.73C222.13,263.06,222.13,287,201,292.94,177.11,299.62,130.48,266.45,142.18,222.95Z"/><path class="cls-17" d="M298.16,371.29l-42.8-124.5S214.26,234.21,164,263.1,92.9,285.33,67.9,287.59s-36.23,11.9-55.76,23.18S-24.6,321.9-24.6,321.9L16.55,466.19Z"/></g></g></g></g></svg>