<svg xmlns="http://www.w3.org/2000/svg" viewBox="0 0 210.37 210.37"><defs><style>.cls-1{fill:#e6c705;}</style></defs><title>sunny</title><g id="Layer_2" data-name="Layer 2"><g id="Layer_1-2" data-name="Layer 1"><path id="_Path_" data-name="&lt;Path&gt;" class="cls-1" d="M105.19,157.52a52.34,52.34,0,1,0-52.34-52.34A52.4,52.4,0,0,0,105.19,157.52Z"/><path id="_Path_2" data-name="&lt;Path&gt;" class="cls-1" d="M99.62,29.16a5.57,5.57,0,1,0,11.14,0V5.57a5.57,5.57,0,1,0-11.14,0Z"/><path id="_Path_3" data-name="&lt;Path&gt;" class="cls-1" d="M99.62,181.21V204.8a5.57,5.57,0,1,0,11.14,0V181.21a5.57,5.57,0,1,0-11.14,0Z"/><path id="_Path_4" data-name="&lt;Path&gt;" class="cls-1" d="M67.18,44.92A5.57,5.57,0,0,0,72,36.56L60.2,16.13a5.57,5.57,0,0,0-9.65,5.57l11.8,20.43A5.57,5.57,0,0,0,67.18,44.92Z"/><path id="_Path_5" data-name="&lt;Path&gt;" class="cls-1" d="M140.41,166.2a5.57,5.57,0,0,0-2,7.61l11.8,20.43a5.57,5.57,0,1,0,9.65-5.57L148,168.24A5.57,5.57,0,0,0,140.41,166.2Z"/><path id="_Path_6" data-name="&lt;Path&gt;" class="cls-1" d="M14.09,52.59a5.57,5.57,0,0,0,2,7.61L36.56,72a5.57,5.57,0,0,0,5.57-9.65L21.7,50.55A5.57,5.57,0,0,0,14.09,52.59Z"/><path id="_Path_7" data-name="&lt;Path&gt;" class="cls-1" d="M194.24,150.17l-20.43-11.8a5.57,5.57,0,1,0-5.57,9.65l20.43,11.8a5.57,5.57,0,0,0,5.57-9.65Z"/><path id="_Path_8" data-name="&lt;Path&gt;" class="cls-1" d="M34.73,105.19a5.57,5.57,0,0,0-5.57-5.57H5.57a5.57,5.57,0,0,0,0,11.14H29.16A5.57,5.57,0,0,0,34.73,105.19Z"/><path id="_Path_9" data-name="&lt;Path&gt;" class="cls-1" d="M204.8,99.62H181.21a5.57,5.57,0,0,0,0,11.14H204.8a5.57,5.57,0,0,0,0-11.14Z"/><path id="_Path_10" data-name="&lt;Path&gt;" class="cls-1" d="M36.56,138.38l-20.43,11.8a5.57,5.57,0,1,0,5.57,9.65L42.13,148a5.57,5.57,0,0,0-5.57-9.65Z"/><path id="_Path_11" data-name="&lt;Path&gt;" class="cls-1" d="M188.67,50.55l-20.43,11.8A5.57,5.57,0,1,0,173.81,72l20.43-11.8a5.57,5.57,0,1,0-5.57-9.65Z"/><path id="_Path_12" data-name="&lt;Path&gt;" class="cls-1" d="M62.35,168.24l-11.8,20.43a5.57,5.57,0,1,0,9.65,5.57L72,173.81a5.57,5.57,0,0,0-9.65-5.57Z"/><path id="_Path_13" data-name="&lt;Path&gt;" class="cls-1" d="M140.41,44.17a5.57,5.57,0,0,0,7.61-2l11.8-20.43a5.57,5.57,0,1,0-9.65-5.57l-11.8,20.43A5.57,5.57,0,0,0,140.41,44.17Z"/></g></g></svg>